<svg width="465" height="162" viewBox="0 0 465 162" fill="none" xmlns="http://www.w3.org/2000/svg">
<g clip-path="url(#clip0_153_2)">
<path d="M94.1811 58.6966C89.8683 58.8492 85.2108 60.299 80.9358 61.1115C76.5158 61.9561 72.1266 62.9558 67.7695 64.1007C59.2935 66.3398 50.94 68.9672 42.7907 72.2149C34.9378 75.3488 27.355 78.9803 20.0656 83.2434C13.2762 87.2167 2.5904 91.8787 1.37117 100.605C1.1228 102.418 2.27798 104.851 4.15291 105.41C12.0036 107.738 19.7978 102.027 26.8046 99.0487C34.2903 95.8686 41.9407 92.9813 49.7198 90.5941C57.1836 88.3083 64.8343 86.6204 72.533 85.3519C76.4034 84.7102 80.2985 84.1926 84.2084 83.7977C88.7311 83.3389 93.2357 83.8253 97.7312 83.2622C104.376 82.4356 109.17 75.7418 108.229 69.2031C107.183 61.976 100.892 58.4729 94.1699 58.7053L94.1811 58.6966Z" fill="#20409a"/>
<path d="M185.159 56.3292C176.588 56.8429 168.087 57.9197 159.52 58.5549C151.146 59.1841 143.332 60.0048 135.244 62.1313C128.764 61.5577 125.233 73.4397 134.24 75.4704C142.787 77.3928 150.954 77.8462 159.696 78.0595C168.257 78.2702 176.791 78.9312 185.358 79.0116C192.203 79.077 198.204 75.0447 198.13 67.5468C198.064 60.3018 192.034 55.9146 185.14 56.3168L185.159 56.3292Z" fill="#20409a"/>
<path d="M269.09 61.8234C259.963 61.7028 251.002 61.3913 241.939 62.5284C235.671 63.3219 233.724 73.5084 240.309 75.4763C249.033 78.076 257.717 79.3907 266.704 80.7739C275.485 82.1209 284.548 84.1888 293.44 84.411C299.367 84.5624 304.901 81.1971 305.694 74.8968C306.445 68.9239 302.072 63.475 296.179 62.6427C287.337 61.3887 278.015 61.9389 269.09 61.8234Z" fill="#20409a"/>
<path d="M400.198 52.2005C396.545 55.0366 394.454 61.0827 396.785 65.3776C400.727 72.6568 406.174 78.4724 411.769 84.3875C407.475 83.5044 403.185 82.6821 398.894 81.9405C382.625 79.147 366.098 73.5998 349.531 73.9839C344.82 74.0964 342.847 81.6795 346.896 84.1041C361.085 92.6125 378.194 95.9351 393.686 101.534C395.469 102.181 397.275 102.812 399.071 103.431C395.404 104.622 391.736 105.814 388.07 106.995C374.789 111.3 380.994 134.225 394.759 130.807C412.717 126.344 430.64 121.757 448.558 117.128C457.881 114.723 460.65 105.94 457.164 99.5248C456.879 97.4631 456.086 95.5188 454.664 93.9994C448.14 86.9797 441.624 79.9711 435.1 72.9514C428.433 65.7827 422.092 57.4658 413.809 52.16C409.593 49.4624 404.331 48.9915 400.198 52.2005Z" fill="#20409a"/>
</g>
<defs>
<clipPath id="clip0_153_2">
<rect width="105.55" height="454.33" fill="white" transform="translate(0.797852 105.159) rotate(-82.8263)"/>
</clipPath>
</defs>
</svg>
